<svg width="90" height="92" viewBox="0 0 90 92" fill="none" xmlns="http://www.w3.org/2000/svg">
<path d="M89.3255 4.08802L87.3972 2.15971L1.23995 88.394L0.842643 90.3995L1.06755 90.3995L2.97544 90.3995L89.3255 4.08802Z" fill="#00FF00"/>
<path d="M21.0455 2.68679L18.4405 2.15971L1.23992 88.394L2.58976 89.4932L3.20682 89.616L3.82084 89.2811L21.0455 2.68679Z" fill="#00FF00"/>
<path fill-rule="evenodd" clip-rule="evenodd" d="M21.0631 2.68642L23.6856 2.15971L41.1947 89.8596L38.4951 90.3995L21.0631 2.68642Z" fill="#00FF00"/>
<path d="M48.5994 2.69964H51.2991V90.3995H48.5994V2.69964Z" fill="#00FF00"/>
<path d="M48.5994 0H89.3255V2.69964H48.5994V0Z" fill="#00FF00"/>
<path d="M87.32 2.69964H89.3254V4.08803H87.32V2.69964Z" fill="#00FF00"/>
<path d="M41.2915 90.3995L41.1947 89.8596L38.495 90.3995H41.2915Z" fill="#00FF00"/>
<path d="M21.063 0.308525C19.572 0.308525 18.3634 1.37906 18.3634 2.69964H23.7627C23.7627 1.37906 22.554 0.308525 21.063 0.308525Z" fill="#00FF00"/>
<path d="M89.3254 4.08803C89.7497 3.62524 89.9811 3.21146 89.9811 2.08259C89.9811 0.953706 90.1739 0 89.3254 0V4.08803Z" fill="#00FF00"/>
</svg>
